PathFileType	4	(X/Y/Z)	OpenSim_Sub03_EMGBaseline_Magnet.trc
DataRate	CameraRate	NumFrames	NumMarkers	Units	OrigDataRate	OrigDataStartFrame	OrigNumFrames
100	100	30	8	m	100	4608	7372
Frame#	Time	torso_imu_offset_imu	pelvis_imu_offset_imu	tibia_r_imu_offset_imu	femur_r_imu_offset_imu	tibia_l_imu_offset_imu	femur_l_imu_offset_imu	toes_r_imu_offset_imu	toes_l_imu_offset_imu
				X1	Y1	Z1	X2	Y2	Z2	X3	Y3	Z3	X4	Y4	Z4	X5	Y5	Z5	X6	Y6	Z6	X7	Y7	Z7	X8		Y8	Z8	

4608	46.07000000	-0.89228900	-0.15707744	0.13963142	-0.71608206	0.09379588	-0.57470072	-0.70637628	-0.30569594	-0.01428505	-0.80719592	-0.07392519	0.15777157	-0.57722613	0.53277706	0.18321249	-0.64566720	0.45850420	0.27600643	-0.64548256	0.02870009	-0.48336910	-0.74817908	-0.08586215	-0.27356961
4609	46.08000000	-0.89810122	-0.15636191	0.13847122	-0.71290206	0.08930962	-0.58220744	-0.71221776	-0.28847848	-0.02344246	-0.80332118	-0.07757635	0.16674630	-0.57130062	0.54236954	0.17979628	-0.64152178	0.46292183	0.27051133	-0.63297271	0.04282831	-0.48378096	-0.74676038	-0.08520167	-0.26722091
4610	46.09000000	-0.89556326	-0.15525616	0.14187538	-0.71424876	0.08925993	-0.57746128	-0.71650107	-0.27592662	-0.02359911	-0.80042713	-0.07737094	0.16959725	-0.56245059	0.55008579	0.18152072	-0.64390292	0.46738671	0.26714823	-0.62821278	0.05699040	-0.49221247	-0.75150010	-0.08673254	-0.25706323
4611	46.10000000	-0.89511435	-0.15464732	0.14222097	-0.71524880	0.08698037	-0.57341597	-0.71583501	-0.26515447	-0.02065057	-0.80037173	-0.07733819	0.17635273	-0.56225628	0.55244696	0.17981318	-0.63924504	0.46703005	0.26439013	-0.62246550	0.07583120	-0.49722634	-0.75541685	-0.08307758	-0.24769805
4612	46.11000000	-0.89442087	-0.15655387	0.14380823	-0.71208637	0.08391971	-0.57707002	-0.71426181	-0.25745719	-0.02292322	-0.79315770	-0.08149863	0.18089889	-0.55700392	0.56186372	0.17332305	-0.63814365	0.47116312	0.25871925	-0.62016711	0.08036727	-0.50644027	-0.75363921	-0.08442380	-0.24370208
4613	46.12000000	-0.89532979	-0.15616265	0.15098186	-0.71542776	0.08132983	-0.57753992	-0.72064383	-0.25796228	-0.02696722	-0.79170185	-0.08270261	0.19090687	-0.54973915	0.57137046	0.17108433	-0.63846049	0.47302297	0.25199778	-0.61596532	0.08121852	-0.50805612	-0.76127731	-0.08637673	-0.22945875
4614	46.13000000	-0.89336607	-0.15629552	0.14921093	-0.71591537	0.08064977	-0.57986297	-0.72510457	-0.25479395	-0.02458143	-0.78968972	-0.08126305	0.19802725	-0.53876664	0.57768014	0.16942579	-0.64020588	0.47667657	0.25084918	-0.61299619	0.08594499	-0.50349923	-0.76455662	-0.08052072	-0.21963385
4615	46.14000000	-0.89454678	-0.15615527	0.14015558	-0.71252449	0.07445700	-0.58135148	-0.72199584	-0.25701198	-0.01839337	-0.78811308	-0.07584624	0.19838274	-0.53440611	0.58329517	0.16840362	-0.64292012	0.48242723	0.25077677	-0.61964364	0.08407229	-0.50301665	-0.76643223	-0.07787309	-0.20418786
4616	46.15000000	-0.89622487	-0.15658340	0.14659521	-0.71319492	0.07596684	-0.58151508	-0.71979936	-0.26927975	-0.01514035	-0.78821945	-0.07520818	0.20354818	-0.53480980	0.58876745	0.16578239	-0.63541130	0.48441739	0.24058699	-0.62356988	0.07859300	-0.49602988	-0.77042985	-0.07991362	-0.19435468
4617	46.16000000	-0.89451891	-0.15487053	0.14225269	-0.71719120	0.07614116	-0.58440896	-0.71615393	-0.27352031	-0.01333287	-0.78526289	-0.07407212	0.20869607	-0.51798947	0.60006902	0.16167659	-0.63846638	0.48972562	0.23171828	-0.63321409	0.07193884	-0.48554944	-0.77688951	-0.07944136	-0.19123896
4618	46.17000000	-0.89549302	-0.15623395	0.14144629	-0.71939424	0.06724177	-0.58124167	-0.71076634	-0.28361824	-0.00089630	-0.78438516	-0.06953609	0.21557913	-0.51537558	0.60714891	0.15781182	-0.64227920	0.48711040	0.23442603	-0.64651596	0.05679399	-0.47713767	-0.78051557	-0.07611882	-0.16633906
4619	46.18000000	-0.89703443	-0.16118375	0.14111620	-0.71828056	0.06424745	-0.58351554	-0.71170915	-0.29707560	0.00344346	-0.78027958	-0.06936938	0.21658947	-0.51088379	0.61690473	0.15361580	-0.63924952	0.48771024	0.23329151	-0.65264757	0.04572926	-0.46606842	-0.78157553	-0.07695559	-0.15219363
4620	46.19000000	-0.89181270	-0.16006010	0.13777309	-0.71674152	0.06069334	-0.58142872	-0.70485748	-0.30346259	0.01043540	-0.77862542	-0.06791262	0.21645885	-0.49670566	0.62550400	0.14614181	-0.63628499	0.49184784	0.22609331	-0.66283433	0.03399662	-0.45987388	-0.78785667	-0.07650089	-0.13592576
4621	46.20000000	-0.89266584	-0.16111654	0.13395881	-0.72042743	0.06243851	-0.57694692	-0.70101964	-0.31097005	0.01980748	-0.77620998	-0.07207101	0.22758917	-0.48760078	0.62738621	0.14365808	-0.63929772	0.49403444	0.21568409	-0.67538223	0.01482693	-0.44439311	-0.79145833	-0.07253980	-0.11599855
4622	46.21000000	-0.89748173	-0.16360804	0.13320534	-0.72055042	0.05900610	-0.58091368	-0.70007988	-0.31764940	0.02765405	-0.76925761	-0.07905685	0.24078618	-0.47700429	0.64084377	0.14230532	-0.64515090	0.49452598	0.20355580	-0.68499768	-0.00088946	-0.42310228	-0.79053720	-0.07162190	-0.09216631
4623	46.22000000	-0.89568837	-0.16454858	0.13175510	-0.72219655	0.05989980	-0.58108841	-0.69424828	-0.32321671	0.03212563	-0.76343986	-0.08920285	0.24723374	-0.46510332	0.64985322	0.13391770	-0.64110292	0.49248235	0.20876197	-0.69252702	-0.01913534	-0.41123457	-0.79543128	-0.07101854	-0.06918257
4624	46.23000000	-0.89524774	-0.16522240	0.12661902	-0.72254882	0.06241944	-0.57916439	-0.69344981	-0.33058580	0.04028234	-0.75849199	-0.09534496	0.24886320	-0.45702483	0.65997377	0.12266391	-0.64091383	0.49367980	0.20904283	-0.70320956	-0.04001231	-0.40392968	-0.79232575	-0.06480128	-0.05253566
4625	46.24000000	-0.89585664	-0.16759955	0.12335160	-0.72643588	0.05891928	-0.57358348	-0.69162115	-0.33985804	0.05187447	-0.75383827	-0.09583005	0.25314621	-0.44836067	0.66549870	0.11870120	-0.64390597	0.49606582	0.19853850	-0.70311603	-0.06046262	-0.39280010	-0.79526248	-0.06390446	-0.02224828
4626	46.25000000	-0.89585201	-0.16951753	0.12140448	-0.72790707	0.06486787	-0.57231779	-0.68296455	-0.34882845	0.06758050	-0.75463841	-0.10028762	0.26031530	-0.43874037	0.67411346	0.11893518	-0.65071637	0.49787550	0.18693420	-0.70521622	-0.08070741	-0.38694006	-0.79760038	-0.05991911	0.00858497
4627	46.26000000	-0.89732608	-0.17186192	0.11958920	-0.72803944	0.06995246	-0.57761976	-0.68082651	-0.35101916	0.07731095	-0.75016047	-0.09472880	0.26815473	-0.42230489	0.68475437	0.11079928	-0.65205441	0.49481273	0.19263498	-0.71163965	-0.09693561	-0.37994985	-0.79471167	-0.05391124	0.03904308
4628	46.27000000	-0.89500420	-0.17369816	0.11540226	-0.73187773	0.06753302	-0.57346576	-0.67099169	-0.35354430	0.09631804	-0.74929708	-0.08789097	0.27629402	-0.40302686	0.69295172	0.10374158	-0.65120427	0.48886745	0.18785524	-0.71590047	-0.10707972	-0.37085366	-0.79268643	-0.05025801	0.07844990
4629	46.28000000	-0.89839589	-0.17731902	0.11045561	-0.73518328	0.07130543	-0.56708404	-0.66687724	-0.36167222	0.10242422	-0.74477036	-0.08725392	0.28340398	-0.39098047	0.70347770	0.09869074	-0.66150427	0.48378851	0.17041574	-0.71378000	-0.11477704	-0.37336064	-0.78528511	-0.03931664	0.11725506
4630	46.29000000	-0.89545221	-0.17875942	0.10769044	-0.73692963	0.07142023	-0.56457723	-0.67013643	-0.37634228	0.10407693	-0.74183555	-0.07810006	0.29325942	-0.38175030	0.71202706	0.08624554	-0.66959229	0.47765124	0.15965546	-0.71176781	-0.11849273	-0.37292685	-0.77575144	-0.02664808	0.15755706
4631	46.30000000	-0.89633051	-0.17806377	0.10430684	-0.73661503	0.07894172	-0.56266525	-0.65619359	-0.37972255	0.11642106	-0.73788674	-0.07457600	0.29924293	-0.36493968	0.72214999	0.08269757	-0.67880165	0.46764179	0.15251468	-0.71061427	-0.11745356	-0.36956513	-0.76946103	-0.02082731	0.19958666
4632	46.31000000	-0.89671206	-0.18380814	0.10667739	-0.73669693	0.08268167	-0.55745360	-0.65012006	-0.38663108	0.12058712	-0.72993667	-0.08561046	0.30309170	-0.34745150	0.73534977	0.07621220	-0.68503081	0.45197918	0.14773317	-0.71395970	-0.11946300	-0.37415315	-0.75835469	-0.01024795	0.23930689
4633	46.32000000	-0.89774099	-0.18525871	0.10546554	-0.73924773	0.08345714	-0.55751829	-0.64493275	-0.39691278	0.12139256	-0.73045417	-0.09417252	0.31008836	-0.33369286	0.73510156	0.07449042	-0.68988145	0.43999913	0.13663043	-0.70851610	-0.12218254	-0.37094199	-0.74125893	0.00471057	0.27121684
4634	46.33000000	-0.89612238	-0.18348755	0.09841390	-0.74397493	0.08715550	-0.55717868	-0.63955007	-0.39889087	0.12029139	-0.72672641	-0.10171488	0.31492842	-0.31271018	0.74233494	0.07625923	-0.70000731	0.42961261	0.12739644	-0.71094435	-0.12193475	-0.36990823	-0.72604034	0.02287667	0.30823543
4635	46.34000000	-0.89922048	-0.18884265	0.09594418	-0.73951208	0.08629621	-0.56161288	-0.63764880	-0.40336135	0.12804559	-0.72209074	-0.11618930	0.31856635	-0.28849725	0.75880762	0.07372661	-0.70958312	0.41647989	0.12205697	-0.71290602	-0.12164154	-0.36890074	-0.71188221	0.03957934	0.34075377
4636	46.35000000	-0.89462420	-0.19147273	0.09210665	-0.74033006	0.09150946	-0.55989194	-0.63224934	-0.41107922	0.13083202	-0.71766180	-0.12529704	0.31137820	-0.27458687	0.75875592	0.07118609	-0.71900557	0.40313718	0.11597547	-0.70817608	-0.12350937	-0.36437794	-0.68881893	0.05446382	0.36753841
4637	46.36000000	-0.89271562	-0.19138562	0.09216729	-0.74057169	0.08969479	-0.55626102	-0.62855509	-0.41578922	0.12888399	-0.71297032	-0.14298715	0.31006181	-0.26142441	0.76296978	0.06833741	-0.72799016	0.38929587	0.10959048	-0.71016035	-0.12592303	-0.36316906	-0.66827578	0.07112440	0.40150344
